<?xml version="1.0" encoding="utf-8"?>
<!-- Generator: Adobe Illustrator 23.0.4, SVG Export Plug-In . SVG Version: 6.00 Build 0)  -->
<svg version="1.1" id="Warstwa_1" xmlns="http://www.w3.org/2000/svg" xmlns:xlink="http://www.w3.org/1999/xlink" x="0px" y="0px"
	 viewBox="0 0 544.3 306.1" style="enable-background:new 0 0 544.3 306.1;" xml:space="preserve">
<style type="text/css">
	.st0{fill:#111D30;}
	.st1{fill:#405492;}
	.st2{fill:#69C6DE;}
	.st3{fill:#E61C58;}
</style>
<rect class="st0" width="544.3" height="306.1"/>
<path class="st1" d="M271.1,158.7l-1.3-2.2C200.3,50.7,106.2-2.3,0,0.6v85.7c30.3-1.2,58.8,4.1,85.5,15.7
	c52.5,23,89.7,67.1,111.8,100.5l14.4,25.1c0,0,15.6,29.2,41.3,1.9c25.7-27.3,33.2-44.7,33.2-44.7L271.1,158.7z"/>
<path class="st2" d="M0,0v18.9C26.3,35,60.6,34.1,102.2,16c9.9-4.3,20.5-9.6,31.7-16H0z"/>
<path class="st1" d="M225.9,0c23,52.9,90.9,64.1,105.1,65.9c57.9,10.2,110.9-2.5,153.5-36.8C495,20.6,504.7,10.8,513.5,0H225.9z"/>
<path class="st1" d="M515.5,306.1c-24-53.9-11.3-83.2-1.5-98.3C535,171.1,411.9,105.7,401,129.4c-15.9,37.1-16.4,99.1,16.6,176.8
	H515.5z"/>
<g>
	<path class="st2" d="M254.1,306.1c6.7-8.2,14.8-16.7,24.6-26.3c9.4,5.3,22.1,14.4,36.8,26.3h131.3c-22.4-20.4-43.4-38.9-62.5-54.6
		c-42.3-34.9-106.1-87.7-150.2-47.8c-38.7,35-64.5,67.9-80.2,102.4H254.1z"/>
</g>
<path class="st1" d="M185.6,306.1c-37.3-34.7-71.9-66.1-101.7-90.7c-23.6-19.5-54-44.6-83.9-56v98.9c16.1,12,36,28.6,57.8,47.8
	H185.6z"/>
<path class="st2" d="M544.3,159.2C442.2,28.8,296-1.6,138.1,76.6C88.7,101,42.5,112.4,0,110.7v86.1c55.7,1.6,114.7-12.8,176.2-43.3
	c76.9-38.1,146.2-44.2,205.8-18.1c52.5,23,89.7,67.1,111.8,100.5l14.4,25.1c0,0,13.5,25.2,36.1,6.8V159.2z"/>
<path class="st2" d="M544.3,0h-25.4c0.1,7.5,1,15,2.9,22.3c4.2,16.4,12.4,29.5,22.5,39.9V0z"/>
<path class="st3" d="M544.3,117.9c-13.4-16.6-32.2-34.3-66.4-35.6c-42.5-1.6-67.5,16-85.7,28.8c-13.6,9.5-19.5,13.4-30.3,12.9
	c-17-0.7-29.7-7-45.7-14.8c-18.6-9.2-41.8-20.5-73.4-21.9c-41.2-1.8-63.8,24.2-78.8,41.4c-13.7,15.7-17.4,18.4-25,18.1
	c-11.2-0.5-15.8-4.4-30.5-20.7c-14.1-15.7-33.5-37.2-68-46.8C25.1,75,11.7,74.5,0,76.4v80.1c9.4-9.2,11.9-9.4,20.9-6.9
	c13.4,3.7,21,11.7,33.4,25.4c16.3,18.1,38.6,42.9,81.5,44.7c44,1.9,67.6-25.2,83.2-43.1c12.8-14.7,15.8-16.6,20.6-16.4
	c16.3,0.7,28.7,6.8,44.4,14.5c18.9,9.3,42.3,20.8,74.6,22.2c35.9,1.6,58.7-14.4,75.4-26.1c14.4-10.1,23.1-16.2,41.1-15.6
	c5.4,0.2,6.3,0.2,18.2,16.1c11,14.7,25.1,33.5,50.9,49.6V117.9z"/>
</svg>
