<?xml version="1.0" encoding="utf-8"?>
<!-- Generator: Adobe Illustrator 22.1.0, SVG Export Plug-In . SVG Version: 6.00 Build 0)  -->
<svg version="1.1" id="Warstwa_1" xmlns="http://www.w3.org/2000/svg" xmlns:xlink="http://www.w3.org/1999/xlink" x="0px" y="0px"
	 viewBox="0 0 489.3 109.8" style="enable-background:new 0 0 489.3 109.8;" xml:space="preserve">
<style type="text/css">
	.st0{fill:#FFFFFF;}
</style>
<g>
	<g>
		<g>
			<path class="st0" d="M68.8,91c1,0,1.8-0.2,2.3-0.6s1-1,1.3-1.9l3.5-9.8h21.4l3.6,9.8c0.3,0.9,0.8,1.5,1.3,1.9s1.3,0.6,2.2,0.6
				h15.8c0.7,0,1.2-0.2,1.6-0.5c0.4-0.3,0.6-0.8,0.6-1.4c0-0.5-0.2-1.1-0.5-1.9L96,25.2c-0.5-1.3-1.1-2.2-1.8-2.7
				c-0.6-0.5-1.6-0.8-2.9-0.8H82c-1.3,0-2.3,0.3-2.9,0.8s-1.2,1.4-1.8,2.7L56.5,75.1c-0.1,0.9-1.4,2.4-2.7,2.4
				c-6.4,0-8.3-0.1-13.4-0.1c-6.3,0-11.3-1.2-15-4.8c-3.7-3.7-5.5-9-5.5-16.1s1.7-12.4,5.2-16.1c3.4-3.6,8.3-5.5,14.6-5.5
				c5.5,0,10.3,1.1,14.4,3.4c1,0.5,1.6,0.7,2,0.7c0.7,0,1.2-0.4,1.6-1.3l4.4-7.4c0.5-1,0.7-1.7,0.7-2.1c0-0.7-0.4-1.4-1.1-1.8
				c-2.9-1.9-6.4-3.4-10.6-4.4c-4.2-1.1-8.9-1.6-14.2-1.6c-12,0-18.6,3.1-25.1,9.2s-9.7,15.1-9.7,27c0,11.8,3.3,20.8,10,27
				s13.3,8,25.4,8 M80.4,64.9l6.2-17.3l6.2,17.3C92.8,64.9,80.4,64.9,80.4,64.9z"/>
			<path class="st0" d="M126.9,89.8c-0.8-0.8-1.2-2.1-1.2-3.9V26.8c0-1.8,0.4-3.1,1.2-3.9c0.8-0.8,2.2-1.2,4.2-1.2h9.7
				c1.4,0,2.4,0.2,3.2,0.5s1.4,1,1.8,2l14.8,35.7l14.9-35.7c0.4-1,1-1.7,1.8-2s1.9-0.5,3.2-0.5h9.7c2,0,3.4,0.4,4.2,1.2
				s1.2,2.1,1.2,3.9V86c0,1.8-0.4,3.1-1.2,3.9s-2.2,1.2-4.1,1.2h-8.1c-2,0-3.4-0.4-4.2-1.2c-0.8-0.8-1.2-2.1-1.2-3.9V52.8l-9.9,22.1
				c-0.7,1.7-1.4,2.9-2.2,3.6s-2.2,1.1-4.1,1.1c-1.8,0-3.2-0.4-4-1.1s-1.6-1.9-2.3-3.6l-9.8-22.1V86c0,1.8-0.4,3.1-1.2,3.9
				s-2.2,1.2-4.2,1.2H131C129,91,127.7,90.6,126.9,89.8z"/>
			<path class="st0" d="M205.5,89.8c-0.8-0.8-1.2-2.1-1.2-3.9v-59c0-1.8,0.4-3.1,1.2-3.9c0.8-0.8,2.2-1.3,4.1-1.3h25
				c9.5,0,16.5,2,21,6s6.7,10,6.7,18c0,7.9-2.2,13.8-6.7,17.8s-11.5,6-21.1,6H225V86c0,1.8-0.4,3.1-1.2,3.9s-2.2,1.2-4.2,1.2h-9.9
				C207.7,91,206.3,90.6,205.5,89.8z M233,54.6c2.8,0,4.9-0.7,6.5-2.2c1.5-1.5,2.3-3.7,2.3-6.7c0-3.1-0.8-5.3-2.3-6.8
				s-3.7-2.2-6.5-2.2h-8v18.1h8V54.6z"/>
			<path class="st0" d="M282.5,89.4c-4.9-2.1-8.8-5.2-11.5-9.2s-4.1-8.8-4.1-14.3v-39c0-1.8,0.4-3.1,1.2-3.9
				c0.8-0.8,2.2-1.3,4.1-1.3h9.9c2,0,3.4,0.4,4.2,1.3c0.8,0.9,1.2,2.2,1.2,3.9v39.4c0,3.8,1.1,6.7,3.2,8.7s5.1,3,8.8,3
				c3.7,0,6.7-1,8.8-3c2.1-2,3.2-4.9,3.2-8.7V26.9c0-1.8,0.4-3.1,1.2-3.9c0.8-0.8,2.2-1.3,4.1-1.3h9.9c2,0,3.4,0.4,4.2,1.3
				c0.8,0.9,1.3,2.2,1.3,3.9V66c0,5.5-1.4,10.3-4.1,14.3c-2.8,4-6.6,7.1-11.5,9.2s-10.6,3.2-17,3.2
				C293.1,92.6,287.4,91.5,282.5,89.4z"/>
			<path class="st0" d="M352.5,90.8c-5.1-1.2-9.2-2.9-12.3-5c-1.2-0.7-1.7-1.5-1.7-2.3c0-0.5,0.2-1.1,0.6-1.7l5-8
				c0.5-0.8,1.1-1.2,1.6-1.2c0.3,0,0.9,0.2,1.7,0.7c2.5,1.4,5.4,2.6,8.6,3.5s6.4,1.3,9.5,1.3c3.2,0,5.6-0.5,7.1-1.4
				c1.5-1,2.3-2.5,2.3-4.6c0-2-0.8-3.6-2.5-4.8c-1.7-1.2-4.8-2.6-9.3-4.4c-6.9-2.6-12.2-5.5-16.1-8.7c-3.8-3.2-5.8-7.6-5.8-13.2
				c0-6.7,2.4-11.9,7.2-15.4c4.8-3.5,11.3-5.3,19.3-5.3c5.6,0,10.4,0.5,14.3,1.5c4,1,7.4,2.5,10.2,4.5c1.2,0.9,1.7,1.7,1.7,2.4
				c0,0.5-0.2,1-0.6,1.6l-5,8c-0.6,0.8-1.2,1.2-1.6,1.2c-0.3,0-0.9-0.2-1.7-0.7c-3.9-2.6-8.6-3.9-14.1-3.9c-2.9,0-5.2,0.5-6.7,1.4
				c-1.6,1-2.3,2.5-2.3,4.7c0,1.5,0.4,2.7,1.2,3.7c0.8,1,1.9,1.8,3.3,2.5s3.6,1.6,6.5,2.7l1.9,0.7c5,2,9,3.9,11.9,5.7s5.1,4,6.6,6.6
				s2.2,5.9,2.2,9.8c0,6.1-2.3,10.9-6.8,14.5s-11.2,5.4-19.9,5.4C363,92.6,357.6,92,352.5,90.8z"/>
		</g>
		<path class="st0" d="M404.4,91L404.4,91c-2.4,0-4.4-2-4.4-4.4V25.1c0-2.4,2-4.4,4.4-4.4l0,0c2.4,0,4.4,2,4.4,4.4v61.5
			C408.9,89.1,406.9,91,404.4,91z"/>
		<g>
			<g>
				<path class="st0" d="M432.5,62.2c-1.4,0.2-2.8,0.4-4.2,0.7c-0.2,0-0.4-0.2-0.6-0.5c-0.7-2.3-1.5-4.7-2.3-7.2
					c-0.1-0.4-0.4-0.6-0.6-0.6c-2.4,0.3-4.9,0.7-7.3,1.3c-0.2,0.1-0.4,0.4-0.4,0.8c0,2.9,0,5.8,0.1,8.8c0,0.5-0.1,0.8-0.3,0.9
					c-1.4,0.6-2.7,1.4-4.1,2.2c-0.3,0.2-0.7-0.4-0.8-1.2c-0.4-16.3-0.2-31.2,0.7-44.5c0-0.4,0.2-0.6,0.5-0.6
					c2.1,0.3,4.3,0.7,6.4,1.2c0.3,0.1,0.5,0.4,0.7,0.8c4.8,13.4,8.9,25.6,12.4,36.6C433,61.5,432.8,62.1,432.5,62.2z M422.5,47.8
					c0.4,0,0.6-0.6,0.4-1.2c-1.3-4-2.6-8.1-3.9-12.3c-0.4-1-0.6-1.8-1.3-3.9h-0.1c0.2,0.3,0,2.9-0.1,3.8c-0.1,4.2-0.2,8.5-0.3,12.9
					c0,0.7,0.4,1.3,0.7,1.2C419.4,48,420.9,47.9,422.5,47.8z"/>
				<path class="st0" d="M455.5,58.4c0,0.2-0.2,0.4-0.4,0.5c-2.6,1.3-5.5,2.3-9,2.6c-4,0.3-7.5-0.3-10-3.1
					c-2.6-2.9-4.7-7.8-5.2-13.4s-0.5-11.7,2.4-13.9s9.2,0.4,14.6,2.8c3.2,1.4,6,2.9,8.4,4.4c0.3,0.2,0.5,0.5,0.4,0.7
					c-0.1,1.2-0.3,2.3-0.4,3.5c0,0.4-0.6,0.5-1.1,0.2c-2.1-1.4-4.6-2.7-7.6-3.8c-2.9-1-7-3-8.7-1.7s-1.1,5.4-0.9,8.7s1,6.4,2.5,8.2
					c1.5,1.8,3.7,2.3,6,2.4c1.2,0,2.2-0.1,3-0.3c0.2-0.1,0.4-0.3,0.4-0.5c0.1-1.3,0.2-2.6,0.2-3.9c0-0.3-0.3-0.6-0.6-0.7
					c-1.4-0.2-2.8-0.4-4.2-0.7c-0.4-0.1-0.6-0.4-0.6-0.8c0-1.3,0-2.5,0-3.8c0-0.4,0.3-0.6,0.7-0.5c3.7,0.9,7.3,1.8,11,2.5
					c0.4,0.1,0.6,0.4,0.6,0.6C456.5,51.7,456,55,455.5,58.4z"/>
				<path class="st0" d="M475.6,53.6c-1.6,0.9-3.2,1.8-4.8,2.5c-0.3,0.1-0.5,0.1-0.4-0.1c0.8-1.4,1.6-2.8,2.4-4.2
					c0.1-0.2-0.1-0.2-0.5-0.2c-1.9,0.4-3.9,0.6-5.8,0.8c-0.4,0-0.7,0.2-0.8,0.4c-0.6,1.8-1.2,3.5-1.8,5.3c-0.1,0.2-0.4,0.5-0.7,0.5
					c-1.6,0.4-3.2,0.7-4.8,1c-0.3,0.1-0.5-0.1-0.5-0.4c1.2-6.4,2.5-12.8,3.7-19.2c0.1-0.3,0.4-0.4,0.8-0.2c2.1,0.7,4.1,1.3,6.2,1.8
					c0.4,0.1,0.7,0.4,0.6,0.6c-0.6,1.7-1.2,3.4-1.7,5.2c-0.1,0.2,0.2,0.4,0.6,0.4c2.1,0.1,4.1,0.2,6.2,0c0.4,0,0.8-0.2,0.9-0.4
					c0.8-1.4,1.5-2.7,2.3-4.1c0.1-0.2,0.5-0.3,0.9-0.3c2.1,0.1,4.1,0.1,6.2-0.1c0.4,0,0.7,0,0.5,0.2c-2.9,3.3-5.8,6.5-8.7,9.8
					C476.3,53.1,475.9,53.4,475.6,53.6z"/>
			</g>
		</g>
	</g>
</g>
</svg>
